name C:\Users\u0101727\Documents\MyRepositories\upper-imu-dc\OpenSim\subject0\MA\MA_Splines\angle_in_n3_dof6_0.mot
datacolumns 7
datarows 27
range 3.65000000 3.91000000
endheader 
time	clav_prot	clav_elev	scapula_abduction	scapula_elevation	scapula_upward_rot	scapula_winging	
          3.65000000	        -30.62585626	          4.60560848	         -9.79969714	         -0.36668095	         46.86245639	         -2.83128850	
          3.66000000	        -16.90593547	          4.60560848	         -9.79969714	         -0.36668095	         46.86245639	         -2.83128850	
          3.67000000	        -44.34577705	         16.86370047	         -9.79969714	         -0.36668095	         46.86245639	         -2.83128850	
          3.68000000	        -30.62585626	         16.86370047	         -9.79969714	         -0.36668095	         46.86245639	         -2.83128850	
          3.69000000	        -16.90593547	         16.86370047	         -9.79969714	         -0.36668095	         46.86245639	         -2.83128850	
          3.70000000	        -44.34577705	         -7.65248351	         11.28790885	         -0.36668095	         46.86245639	         -2.83128850	
          3.71000000	        -30.62585626	         -7.65248351	         11.28790885	         -0.36668095	         46.86245639	         -2.83128850	
          3.72000000	        -16.90593547	         -7.65248351	         11.28790885	         -0.36668095	         46.86245639	         -2.83128850	
          3.73000000	        -44.34577705	          4.60560848	         11.28790885	         -0.36668095	         46.86245639	         -2.83128850	
          3.74000000	        -30.62585626	          4.60560848	         11.28790885	         -0.36668095	         46.86245639	         -2.83128850	
          3.75000000	        -16.90593547	          4.60560848	         11.28790885	         -0.36668095	         46.86245639	         -2.83128850	
          3.76000000	        -44.34577705	         16.86370047	         11.28790885	         -0.36668095	         46.86245639	         -2.83128850	
          3.77000000	        -30.62585626	         16.86370047	         11.28790885	         -0.36668095	         46.86245639	         -2.83128850	
          3.78000000	        -16.90593547	         16.86370047	         11.28790885	         -0.36668095	         46.86245639	         -2.83128850	
          3.79000000	        -44.34577705	         -7.65248351	        -30.88730313	          7.08700750	         46.86245639	         -2.83128850	
          3.80000000	        -30.62585626	         -7.65248351	        -30.88730313	          7.08700750	         46.86245639	         -2.83128850	
          3.81000000	        -16.90593547	         -7.65248351	        -30.88730313	          7.08700750	         46.86245639	         -2.83128850	
          3.82000000	        -44.34577705	          4.60560848	        -30.88730313	          7.08700750	         46.86245639	         -2.83128850	
          3.83000000	        -30.62585626	          4.60560848	        -30.88730313	          7.08700750	         46.86245639	         -2.83128850	
          3.84000000	        -16.90593547	          4.60560848	        -30.88730313	          7.08700750	         46.86245639	         -2.83128850	
          3.85000000	        -44.34577705	         16.86370047	        -30.88730313	          7.08700750	         46.86245639	         -2.83128850	
          3.86000000	        -30.62585626	         16.86370047	        -30.88730313	          7.08700750	         46.86245639	         -2.83128850	
          3.87000000	        -16.90593547	         16.86370047	        -30.88730313	          7.08700750	         46.86245639	         -2.83128850	
          3.88000000	        -44.34577705	         -7.65248351	         -9.79969714	          7.08700750	         46.86245639	         -2.83128850	
          3.89000000	        -30.62585626	         -7.65248351	         -9.79969714	          7.08700750	         46.86245639	         -2.83128850	
          3.90000000	        -16.90593547	         -7.65248351	         -9.79969714	          7.08700750	         46.86245639	         -2.83128850	
          3.91000000	        -44.34577705	          4.60560848	         -9.79969714	          7.08700750	         46.86245639	         -2.83128850	
